<svg width="126" height="92" viewBox="0 0 126 92" fill="none" xmlns="http://www.w3.org/2000/svg">
<path d="M20.192 58H11.68V57.132L14.312 55.06V38.092L11.4 37.112L11.96 35.992H20.472V36.86L17.812 38.932V55.872L20.752 56.88L20.192 58ZM36.1406 35.432C37.13 35.432 38.2686 35.572 39.5566 35.852C40.8633 36.132 41.8153 36.4307 42.4126 36.748V42.18H41.3486C39.6313 39.2493 37.354 37.784 34.5166 37.784C33.2846 37.784 32.1553 38.148 31.1286 38.876C30.1206 39.5853 29.3273 40.584 28.7486 41.872C28.17 43.1413 27.8806 44.5693 27.8806 46.156C27.8806 47.9853 28.1606 49.656 28.7206 51.168C29.2993 52.68 30.1673 53.8933 31.3246 54.808C32.5006 55.7227 33.9473 56.18 35.6646 56.18C37.2513 56.18 39.5286 54.9853 42.4966 52.596L43.3366 53.94L38.1846 57.944C37.494 58.1867 36.822 58.3453 36.1686 58.42C35.534 58.5133 34.8433 58.56 34.0966 58.56C32.1366 58.56 30.4006 58.084 28.8886 57.132C27.3766 56.18 26.2006 54.8733 25.3606 53.212C24.5206 51.532 24.1006 49.628 24.1006 47.5C24.1006 45.316 24.7353 43.3 26.0046 41.452C27.274 39.5853 28.8513 38.12 30.7366 37.056C32.622 35.9733 34.4233 35.432 36.1406 35.432ZM59.1094 35.432C61.088 35.432 62.8334 35.908 64.3454 36.86C65.876 37.812 67.0614 39.128 67.9014 40.808C68.7414 42.488 69.1614 44.392 69.1614 46.52C69.1614 48.704 68.5267 50.72 67.2574 52.568C65.988 54.416 64.4107 55.8813 62.5254 56.964C60.64 58.028 58.8387 58.56 57.1214 58.56C55.1427 58.56 53.388 58.0933 51.8574 57.16C50.3454 56.208 49.1694 54.892 48.3294 53.212C47.4894 51.532 47.0694 49.628 47.0694 47.5C47.0694 45.316 47.704 43.3 48.9734 41.452C50.2427 39.5853 51.82 38.12 53.7054 37.056C55.5907 35.9733 57.392 35.432 59.1094 35.432ZM57.4854 37.784C56.2534 37.784 55.124 38.148 54.0974 38.876C53.0894 39.5853 52.296 40.584 51.7174 41.872C51.1387 43.1413 50.8494 44.5693 50.8494 46.156C50.8494 47.9853 51.1387 49.6653 51.7174 51.196C52.296 52.708 53.1734 53.9213 54.3494 54.836C55.544 55.7507 57.0094 56.208 58.7454 56.208C59.9774 56.208 61.0974 55.8533 62.1054 55.144C63.132 54.416 63.9347 53.4173 64.5134 52.148C65.092 50.86 65.3814 49.4227 65.3814 47.836C65.3814 45.988 65.092 44.308 64.5134 42.796C63.9347 41.2653 63.0574 40.052 61.8814 39.156C60.7054 38.2413 59.24 37.784 57.4854 37.784ZM91.8053 38.96V58.028H90.2653L76.9653 41.2V55.424L79.9053 56.908L79.3453 58.028H72.7933V57.16L75.4253 55.088V38.68L72.5133 37.112L73.0733 35.992H77.3013L90.2653 52.4V38.568L87.3533 37.112L87.9133 35.992H94.4653V36.888L91.8053 38.96ZM109.642 53.044C109.642 52.4653 109.409 51.924 108.942 51.42C108.475 50.916 107.887 50.4587 107.178 50.048C106.487 49.6187 105.545 49.096 104.35 48.48C102.931 47.7333 101.793 47.0987 100.934 46.576C100.075 46.0347 99.3379 45.4 98.7219 44.672C98.1246 43.944 97.8259 43.1413 97.8259 42.264C97.8259 41.3307 98.2179 40.332 99.0019 39.268C99.7859 38.1853 100.738 37.28 101.858 36.552C102.997 35.8053 104.042 35.432 104.994 35.432C106.151 35.432 107.495 35.572 109.026 35.852C110.557 36.132 111.677 36.4307 112.386 36.748V42.18H111.322C110.407 40.668 109.399 39.492 108.298 38.652C107.215 37.812 106.077 37.392 104.882 37.392C103.818 37.392 102.969 37.728 102.334 38.4C101.718 39.0533 101.41 39.912 101.41 40.976C101.41 41.592 101.643 42.1707 102.11 42.712C102.595 43.2347 103.183 43.7013 103.874 44.112C104.583 44.5227 105.563 45.0547 106.814 45.708C108.195 46.3987 109.315 47.0147 110.174 47.556C111.033 48.0787 111.751 48.6947 112.33 49.404C112.927 50.0947 113.226 50.8787 113.226 51.756C113.226 52.6893 112.806 53.6973 111.966 54.78C111.126 55.844 110.099 56.7493 108.886 57.496C107.691 58.224 106.599 58.588 105.61 58.588C104.397 58.588 102.95 58.448 101.27 58.168C99.6086 57.888 98.4139 57.5893 97.6859 57.272V51.84H98.7499C99.7019 53.352 100.785 54.528 101.998 55.368C103.211 56.208 104.462 56.628 105.75 56.628C106.515 56.628 107.197 56.46 107.794 56.124C108.391 55.788 108.849 55.3493 109.166 54.808C109.483 54.248 109.642 53.66 109.642 53.044Z" fill="black"/>
</svg>
